HIERARCHY
ROOT Hips
{
 OFFSET 0.000000 0.000000 0.000000
 CHANNELS 6 Xposition Yposition Zposition Yrotation Xrotation Zrotation
 JOINT Chest
 {
  OFFSET 0.000000 12.953391 -0.028419
  CHANNELS 3 Yrotation Xrotation Zrotation
  JOINT Chest2
  {
   OFFSET 0.000000 10.280254 0.051622
   CHANNELS 3 Yrotation Xrotation Zrotation
   JOINT Chest3
   {
    OFFSET 0.000000 9.287180 0.000000
    CHANNELS 3 Yrotation Xrotation Zrotation
    JOINT Chest4
    {
     OFFSET 0.000000 9.287180 0.000000
     CHANNELS 3 Yrotation Xrotation Zrotation
     JOINT Neck
     {
      OFFSET 0.000000 13.296264 0.000000
      CHANNELS 3 Yrotation Xrotation Zrotation
      JOINT Head
      {
       OFFSET 0.000000 8.959264 0.099003
       CHANNELS 3 Yrotation Xrotation Zrotation
       End Site
       {
        OFFSET 0.000000 17.121337 0.039303
       }
      }
     }
     JOINT RightCollar
     {
      OFFSET -3.193511 7.451388 0.000000
      CHANNELS 3 Yrotation Xrotation Zrotation
      JOINT RightShoulder
      {
       OFFSET -15.792092 0.000000 0.000000
       CHANNELS 3 Yrotation Xrotation Zrotation
       JOINT RightElbow
       {
        OFFSET -31.151839 0.000000 0.000000
        CHANNELS 3 Yrotation Xrotation Zrotation
        JOINT RightWrist
        {
         OFFSET -25.536298 0.000000 0.002321
         CHANNELS 3 Yrotation Xrotation Zrotation
         End Site
         {
          OFFSET -19.133213 0.000000 0.000000
         }
        }
       }
      }
     }
     JOINT LeftCollar
     {
      OFFSET 3.193511 7.451388 0.000000
      CHANNELS 3 Yrotation Xrotation Zrotation
      JOINT LeftShoulder
      {
       OFFSET 15.792092 0.000000 0.000000
       CHANNELS 3 Yrotation Xrotation Zrotation
       JOINT LeftElbow
       {
        OFFSET 31.151839 0.000000 0.000000
        CHANNELS 3 Yrotation Xrotation Zrotation
        JOINT LeftWrist
        {
         OFFSET 25.536298 0.000000 0.002321
         CHANNELS 3 Yrotation Xrotation Zrotation
         End Site
         {
          OFFSET 19.133213 0.000000 0.000000
         }
        }
       }
      }
     }
    }
   }
  }
 }
 JOINT RightHip
 {
  OFFSET -10.745749 0.139252 0.014209
  CHANNELS 3 Yrotation Xrotation Zrotation
  JOINT RightKnee
  {
   OFFSET 0.000000 -43.743899 -0.006071
   CHANNELS 3 Yrotation Xrotation Zrotation
   JOINT RightAnkle
   {
    OFFSET 0.000000 -43.214199 0.089931
    CHANNELS 3 Yrotation Xrotation Zrotation
    JOINT RightToe
    {
     OFFSET 0.000000 -9.699830 19.151588
     CHANNELS 3 Yrotation Xrotation Zrotation
     End Site
     {
      OFFSET 0.000000 -1.292898 4.893873
     }
    }
   }
  }
 }
 JOINT LeftHip
 {
  OFFSET 10.745749 0.139252 0.014209
  CHANNELS 3 Yrotation Xrotation Zrotation
  JOINT LeftKnee
  {
   OFFSET 0.000000 -43.743899 -0.006071
   CHANNELS 3 Yrotation Xrotation Zrotation
   JOINT LeftAnkle
   {
    OFFSET 0.000000 -43.214199 0.089931
    CHANNELS 3 Yrotation Xrotation Zrotation
    JOINT LeftToe
    {
     OFFSET 0.000000 -9.699830 19.151588
     CHANNELS 3 Yrotation Xrotation Zrotation
     End Site
     {
      OFFSET 0.000000 -1.292898 4.893873
     }
    }
   }
  }
 }
}
MOTION
Frames: 17
Frame Time: 0.016667
22.107438 98.360165 85.360130 43.519775 -5.156593 1.687132 2.517008 8.083424 7.404076 0.986374 3.632291 3.238229 0.986374 3.632291 3.238229 0.720287 2.729541 2.421996 -9.046365 27.243045 1.591817 -16.444390 15.020857 4.700661 13.360199 8.862054 5.836858 11.048094 -26.023361 62.599063 -4.901474 34.757440 -14.776261 0.412423 24.120575 -44.915524 1.156069 -2.551611 -13.898855 -1.436738 -2.769079 -74.308158 -14.672235 28.538183 -5.799616 6.651617 14.325522 -1.124326 -11.493955 4.567560 -8.044209 -2.519910 7.328887 -0.124635 2.038872 -6.118911 5.207677 0.000000 0.000000 0.000000 -3.297394 4.321837 -6.278359 -0.427683 3.418312 0.364821 -6.821927 -1.048261 2.952527 0.000000 0.000000 0.000000
22.133077 98.339343 85.175769 43.577608 -5.147018 1.697771 2.531507 8.059121 7.383157 0.993575 3.621610 3.228888 0.993577 3.621611 3.228888 0.725803 2.721554 2.414973 -9.031409 27.233681 1.588692 -16.417581 15.001501 4.693317 13.327476 8.832544 5.912614 11.002783 -25.978195 62.373241 -4.921319 34.646769 -14.783023 0.644559 24.174365 -44.787724 1.043350 -2.512331 -13.732471 -1.406944 -2.906969 -74.397089 -14.685361 28.544215 -5.828955 6.731332 14.314399 -1.126594 -11.340570 4.405652 -8.118618 -2.847335 7.482965 -0.088306 2.193996 -6.132453 5.225567 0.000000 -0.000000 -0.000000 -3.216854 4.203974 -6.284959 -0.682775 3.484411 0.270882 -6.713227 -1.026742 3.018033 0.000000 0.000000 0.000000
22.158717 98.318521 84.991408 43.635441 -5.137453 1.708420 2.546013 8.034849 7.362207 1.000776 3.610941 3.219532 1.000777 3.610942 3.219532 0.731314 2.713574 2.407938 -9.016465 27.224307 1.585556 -16.390791 14.982114 4.685971 13.294671 8.803003 5.988328 10.957416 -25.933011 62.147426 -4.941534 34.536158 -14.789707 0.876962 24.227500 -44.659558 0.930734 -2.472887 -13.566139 -1.376716 -3.044785 -74.486085 -14.698483 28.550195 -5.858308 6.811069 14.303345 -1.128823 -11.187004 4.244055 -8.193646 -3.174775 7.637527 -0.053393 2.349098 -6.146040 5.243524 -0.000000 -0.000000 0.000000 -3.136293 4.086148 -6.291860 -0.937819 3.550299 0.176263 -6.604547 -1.005353 3.083654 0.000000 0.000000 0.000000
22.167163 98.301061 84.800982 43.693059 -5.106493 1.696773 2.562411 8.010691 7.347249 1.008706 3.600384 3.212799 1.008706 3.600384 3.212799 0.737355 2.705685 2.402864 -8.998868 27.205146 1.591442 -16.361637 14.945645 4.695223 13.265263 8.771067 6.063114 10.911117 -25.909786 61.928148 -4.957652 34.421558 -14.817294 1.139650 24.294005 -44.471529 0.825079 -2.444598 -13.407859 -1.359438 -3.176508 -74.564096 -14.720863 28.547496 -5.892220 6.886909 14.295420 -1.128138 -11.033780 4.043132 -8.236334 -3.463113 7.823608 -0.033599 2.465570 -6.151030 5.257146 0.000000 0.000000 0.000000 -3.045944 3.913255 -6.269384 -1.181349 3.666541 0.067042 -6.519589 -0.994291 3.132002 0.000000 0.000000 0.000000
22.153532 98.286634 84.604077 43.728298 -5.054926 1.655369 2.589821 7.992918 7.341898 1.021243 3.592889 3.210092 1.021242 3.592890 3.210095 0.746810 2.700126 2.400780 -8.977097 27.170146 1.609056 -16.328311 14.881169 4.726287 13.242766 8.732367 6.136041 10.862125 -25.919545 61.711233 -4.973472 34.302801 -14.874631 1.468002 24.398216 -44.181444 0.731592 -2.437106 -13.262963 -1.360625 -3.298979 -74.628005 -14.752826 28.526647 -5.932136 6.957128 14.294516 -1.120489 -10.859414 3.802068 -8.237941 -3.719867 8.040777 -0.037600 2.562995 -6.130787 5.255582 0.000000 0.000000 0.000000 -2.923313 3.684561 -6.205292 -1.408825 3.837957 -0.069592 -6.469491 -0.990361 3.162022 0.000000 -0.000000 -0.000000
22.122707 98.275568 84.401108 43.763235 -4.981914 1.591712 2.619091 7.975199 7.342514 1.034502 3.585481 3.210000 1.034501 3.585482 3.210005 0.756792 2.694641 2.400653 -8.952769 27.125316 1.635605 -16.292830 14.799548 4.773832 13.223747 8.691281 6.208080 10.812246 -25.951386 61.500892 -4.984962 34.179852 -14.952745 1.827366 24.514525 -43.830634 0.645083 -2.440773 -13.125983 -1.375021 -3.415475 -74.680804 -14.793997 28.497098 -5.976517 7.023431 14.296685 -1.109956 -10.686133 3.521032 -8.207794 -3.937489 8.289124 -0.056477 2.621835 -6.101953 5.249619 -0.000000 -0.000000 0.000000 -2.791646 3.400351 -6.112527 -1.624989 4.059644 -0.221322 -6.443112 -0.996673 3.174667 0.000000 0.000000 0.000000
22.072147 98.272213 84.187253 43.863916 -4.863466 1.506147 2.624646 7.938740 7.344215 1.037546 3.569375 3.210932 1.037546 3.569375 3.210932 0.759157 2.682577 2.401361 -8.927943 27.078943 1.671860 -16.258603 14.716385 4.838631 13.201320 8.658587 6.281238 10.765850 -25.994383 61.316291 -4.975853 34.048715 -15.045857 2.141675 24.582735 -43.485645 0.556910 -2.437947 -12.988679 -1.399984 -3.529672 -74.720560 -14.852613 28.478600 -6.025461 7.087035 14.293205 -1.105891 -10.580496 3.161684 -8.140523 -4.054154 8.600248 -0.076644 2.544775 -6.105663 5.267250 0.000000 0.000000 0.000000 -2.710226 3.006990 -5.999776 -1.832443 4.367623 -0.364874 -6.430779 -1.032874 3.155536 0.000000 0.000000 0.000000
22.003826 98.279179 83.955149 44.078015 -4.679899 1.399896 2.584802 7.870351 7.347803 1.020963 3.538371 3.213718 1.020963 3.538368 3.213712 0.746876 2.659237 2.403605 -8.902074 27.035444 1.719574 -16.224813 14.640071 4.923187 13.174097 8.634485 6.360558 10.720464 -26.052862 61.151116 -4.967626 33.920732 -15.161375 2.438552 24.570432 -43.088890 0.466439 -2.424453 -12.849566 -1.427964 -3.642095 -74.756436 -14.917943 28.480010 -6.077182 7.146940 14.275086 -1.112055 -10.625527 2.737853 -8.026382 -4.020002 8.891697 -0.102279 2.251021 -6.057023 5.322032 0.000000 0.000000 0.000000 -2.737272 2.466579 -5.864675 -2.021089 4.779028 -0.513527 -6.429370 -1.110969 3.098648 -0.000000 0.000000 0.000000
21.915771 98.293856 83.712159 44.357340 -4.450313 1.272849 2.521131 7.783341 7.352485 0.994104 3.498729 3.217534 0.994104 3.498725 3.217530 0.726930 2.629368 2.406706 -8.875726 26.990375 1.776991 -16.192351 14.562208 5.025008 13.143591 8.618823 6.441071 10.678435 -26.122473 61.011804 -4.938540 33.784406 -15.291785 2.687968 24.510869 -42.699275 0.374485 -2.404377 -12.710088 -1.466663 -3.752208 -74.779177 -15.000802 28.492481 -6.133532 7.204116 14.251277 -1.124751 -10.739754 2.235917 -7.874929 -3.884685 9.245943 -0.125757 1.821412 -6.040321 5.400708 0.000000 0.000000 0.000000 -2.816374 1.817064 -5.710538 -2.201562 5.276809 -0.654506 -6.442089 -1.218950 3.010057 -0.000000 0.000000 -0.000000
21.799516 98.312765 83.475552 44.624152 -4.208922 1.123055 2.472887 7.698699 7.350888 0.974149 3.460356 3.218271 0.974149 3.460356 3.218271 0.712171 2.600488 2.407454 -8.852673 26.938738 1.839618 -16.167264 14.473271 5.137439 13.107329 8.621893 6.509810 10.651094 -26.179069 60.936696 -4.807935 33.601391 -15.409291 2.727962 24.445459 -42.558598 0.274753 -2.372349 -12.566398 -1.536364 -3.862023 -74.759098 -15.141773 28.509157 -6.200043 7.262721 14.239980 -1.142194 -10.744040 1.575630 -7.712516 -3.735168 9.941722 -0.112877 1.400143 -6.350899 5.493893 0.000000 -0.000000 0.000000 -2.834874 1.118374 -5.555747 -2.407207 5.845917 -0.725746 -6.468693 -1.340483 2.893434 0.000000 0.000000 -0.000000
21.653423 98.336759 83.243033 44.835209 -3.940515 0.942317 2.457563 7.613094 7.345143 0.968868 3.422044 3.216595 0.968867 3.422043 3.216590 0.708427 2.571720 2.406298 -8.833836 26.874325 1.907515 -16.151632 14.362027 5.261558 13.066774 8.652022 6.555663 10.657981 -26.216799 60.943049 -4.577525 33.315592 -15.525813 2.393835 24.361652 -42.810611 0.164948 -2.319412 -12.416484 -1.640573 -3.968727 -74.693812 -15.354625 28.510254 -6.275935 7.319457 14.263743 -1.179497 -10.532504 0.679824 -7.589357 -3.739126 11.081539 0.022783 0.716849 -7.187943 5.697595 -0.000000 0.000000 -0.000000 -2.715798 0.348041 -5.412266 -2.677145 6.515349 -0.689211 -6.500180 -1.482123 2.745877 0.000000 0.000000 -0.000000
21.479131 98.364984 83.016896 45.033284 -3.660209 0.738709 2.457463 7.529804 7.332877 0.970403 3.384963 3.211759 0.970401 3.384958 3.211750 0.709803 2.543903 2.402732 -8.818502 26.803390 1.980583 -16.143828 14.239951 5.396364 13.020691 8.701012 6.589886 10.680040 -26.241537 61.013169 -4.246757 32.983283 -15.631603 1.853530 24.270409 -43.311369 0.047904 -2.254215 -12.262231 -1.775818 -4.074689 -74.585150 -15.625461 28.515462 -6.361426 7.377447 14.299973 -1.221761 -10.215307 -0.376723 -7.465103 -3.723602 12.561534 0.203938 0.038935 -8.352279 5.928772 -0.000000 0.000000 -0.000000 -2.537936 -0.472693 -5.272448 -2.971071 7.256478 -0.583887 -6.545354 -1.637388 2.570391 0.000000 0.000000 -0.000000
21.273087 98.391409 82.821296 45.270372 -3.447818 0.533864 2.459189 7.479802 7.300010 0.972533 3.362605 3.197532 0.972533 3.362605 3.197532 0.711602 2.527129 2.392111 -8.808002 26.739619 2.054072 -16.144364 14.131638 5.532071 12.962688 8.754439 6.633186 10.670703 -26.246538 61.133201 -3.733104 32.734362 -15.668091 1.443310 24.252682 -43.871174 -0.075040 -2.197781 -12.105513 -1.952017 -4.189395 -74.409648 -15.953632 28.576922 -6.463944 7.450710 14.299339 -1.222135 -9.938411 -1.447494 -7.228513 -3.266631 14.351141 0.245731 0.325754 -9.546524 5.854631 0.000000 0.000000 0.000000 -2.420732 -1.217966 -5.122781 -3.203423 7.967501 -0.461325 -6.630632 -1.770432 2.379536 0.000000 0.000000 0.000000
21.029882 98.413756 82.660177 45.543544 -3.334969 0.333824 2.468622 7.487859 7.241033 0.977533 3.366038 3.171192 0.977530 3.366047 3.171209 0.715474 2.529699 2.372351 -8.802291 26.676449 2.132144 -16.154474 14.025628 5.676614 12.889137 8.800160 6.688940 10.605607 -26.232816 61.301123 -2.940429 32.558182 -15.603362 1.280433 24.370346 -44.446509 -0.216009 -2.169498 -11.944074 -2.202895 -4.314146 -74.143249 -16.348035 28.721143 -6.592639 7.552449 14.228960 -1.152897 -9.868860 -2.535380 -6.849566 -2.242413 16.490752 0.088805 2.329790 -10.704220 4.969083 0.000000 0.000000 0.000000 -2.406031 -1.853827 -4.963296 -3.318897 8.635746 -0.320534 -6.764465 -1.874234 2.176940 -0.000000 0.000000 -0.000000
20.754925 98.434302 82.529594 45.856615 -3.289630 0.131767 2.480251 7.529540 7.161951 0.983288 3.384327 3.135634 0.983281 3.384335 3.135651 0.719882 2.543385 2.345623 -8.801470 26.620488 2.210617 -16.173151 13.933748 5.822080 12.804165 8.850638 6.754225 10.510564 -26.199009 61.519112 -1.966921 32.463631 -15.473650 1.244401 24.567980 -45.080417 -0.362874 -2.149646 -11.779819 -2.494957 -4.445845 -73.809255 -16.801002 28.920857 -6.739585 7.670316 14.122312 -1.041817 -9.846425 -3.638269 -6.353732 -0.775133 18.958391 -0.116339 5.321568 -11.804295 3.597725 0.000000 0.000000 0.000000 -2.451137 -2.413413 -4.790382 -3.373006 9.273228 -0.158378 -6.938414 -1.956168 1.959126 -0.000000 0.000000 0.000000
20.460892 98.453841 82.441871 46.272193 -3.295643 -0.070077 2.463648 7.562408 7.065959 0.976980 3.398161 3.093075 0.976980 3.398161 3.093075 0.715326 2.553648 2.313695 -8.806597 26.605139 2.272385 -16.196493 13.915267 5.934787 12.713387 8.928351 6.840311 10.414264 -26.134941 61.779726 -1.018589 32.610237 -15.318138 1.308417 24.755263 -45.715250 -0.477941 -2.101277 -11.621200 -2.737954 -4.589017 -73.456540 -17.287539 29.147421 -6.888726 7.779827 14.029719 -0.924704 -9.524343 -4.609511 -5.717527 1.192693 21.635928 -0.178676 8.032723 -12.710714 2.669078 0.000000 0.000000 0.000000 -2.547383 -2.871190 -4.582601 -3.448110 9.814930 -0.022893 -7.153652 -2.002032 1.727859 -0.000000 0.000000 -0.000000
20.152245 98.472999 82.416204 46.809826 -3.361677 -0.277478 2.402125 7.578790 6.950840 0.951324 3.403918 3.042910 0.951321 3.403918 3.042906 0.696334 2.557757 2.276208 -8.811695 26.652449 2.313266 -16.211322 14.009280 6.002851 12.627299 9.049972 6.967012 10.338819 -26.038963 62.076276 -0.162770 33.083011 -15.164604 1.485138 24.916100 -46.404076 -0.542269 -2.003588 -11.467310 -2.917084 -4.755056 -73.083765 -17.802140 29.413543 -7.043724 7.869972 13.975023 -0.807306 -8.781095 -5.422095 -4.864393 4.143184 24.646782 0.113688 9.922187 -13.583516 2.652802 -0.000000 -0.000000 0.000000 -2.706651 -3.188430 -4.316298 -3.556332 10.220190 0.062360 -7.411439 -2.006643 1.484045 -0.000000 -0.000000 0.000000
